<svg width="20" height="14" viewBox="0 0 20 14" fill="none" xmlns="http://www.w3.org/2000/svg">
<path d="M1 0C0.447715 0 0 0.447715 0 1C0 1.55228 0.447715 2 1 2H19C19.5523 2 20 1.55228 20 1C20 0.447715 19.5523 0 19 0H1Z" fill="#2D3648"/>
<path d="M1 4C0.447715 4 0 4.44772 0 5C0 5.55228 0.447715 6 1 6H19C19.5523 6 20 5.55228 20 5C20 4.44772 19.5523 4 19 4H1Z" fill="#2D3648"/>
<path d="M0 9C0 8.44771 0.447715 8 1 8H19C19.5523 8 20 8.44771 20 9C20 9.55229 19.5523 10 19 10H1C0.447715 10 0 9.55229 0 9Z" fill="#2D3648"/>
<path d="M1 12C0.447715 12 0 12.4477 0 13C0 13.5523 0.447715 14 1 14H19C19.5523 14 20 13.5523 20 13C20 12.4477 19.5523 12 19 12H1Z" fill="#2D3648"/>
</svg>
