<svg width="16" height="22" viewBox="0 0 16 22" fill="none" xmlns="http://www.w3.org/2000/svg">
<path d="M8 16C7.44772 16 7 16.4477 7 17C7 17.5523 7.44772 18 8 18H8.01C8.56229 18 9.01 17.5523 9.01 17C9.01 16.4477 8.56229 16 8.01 16H8Z" fill="#747474"/>
<path fill-rule="evenodd" clip-rule="evenodd" d="M3 0C1.34315 0 0 1.34315 0 3V19C0 20.6569 1.34315 22 3 22H13C14.6569 22 16 20.6569 16 19V3C16 1.34315 14.6569 0 13 0H3ZM2 3C2 2.44772 2.44772 2 3 2H13C13.5523 2 14 2.44772 14 3V19C14 19.5523 13.5523 20 13 20H3C2.44772 20 2 19.5523 2 19V3Z" fill="#747474"/>
</svg>
