<svg width="24" height="18" viewBox="0 0 24 18" fill="none" xmlns="http://www.w3.org/2000/svg">
<path fill-rule="evenodd" clip-rule="evenodd" d="M11.9998 5C9.79069 5 7.99982 6.79086 7.99982 9C7.99982 11.2091 9.79069 13 11.9998 13C14.209 13 15.9998 11.2091 15.9998 9C15.9998 6.79086 14.209 5 11.9998 5ZM9.99982 9C9.99982 7.89543 10.8953 7 11.9998 7C13.1044 7 13.9998 7.89543 13.9998 9C13.9998 10.1046 13.1044 11 11.9998 11C10.8953 11 9.99982 10.1046 9.99982 9Z" fill="#747474"/>
<path fill-rule="evenodd" clip-rule="evenodd" d="M23.8939 8.55208C23.8941 8.55245 23.8943 8.55279 22.9998 9C23.8943 9.44721 23.8941 9.44755 23.8939 9.44792L23.8923 9.45113L23.8888 9.45796L23.8775 9.48018C23.8679 9.49873 23.8545 9.52469 23.8371 9.55756C23.8023 9.6233 23.7518 9.71677 23.6859 9.83401C23.554 10.0684 23.36 10.3985 23.1055 10.7925C22.5978 11.5787 21.843 12.6294 20.8544 13.6839C18.8953 15.7736 15.8993 18 11.9998 18C8.10032 18 5.1043 15.7736 3.14529 13.6839C2.15666 12.6294 1.40189 11.5787 0.89416 10.7925C0.639674 10.3985 0.445616 10.0684 0.313795 9.83401C0.247847 9.71677 0.197364 9.6233 0.162577 9.55756C0.145181 9.52469 0.131699 9.49873 0.122162 9.48018L0.110814 9.45796L0.107363 9.45113L0.106194 9.4488C0.10601 9.44844 0.105397 9.44721 0.999824 9C0.105397 8.55279 0.105565 8.55245 0.105749 8.55208L0.107363 8.54887L0.110814 8.54204L0.122162 8.51982C0.131699 8.50127 0.145181 8.47531 0.162577 8.44244C0.197364 8.3767 0.247847 8.28323 0.313795 8.16599C0.445616 7.93164 0.639674 7.60152 0.89416 7.20747C1.40189 6.42131 2.15666 5.3706 3.14529 4.31606C5.1043 2.22644 8.10032 0 11.9998 0C15.8993 0 18.8953 2.22644 20.8544 4.31606C21.843 5.3706 22.5978 6.42131 23.1055 7.20747C23.36 7.60152 23.554 7.93164 23.6859 8.16599C23.7518 8.28323 23.8023 8.3767 23.8371 8.44244C23.8545 8.47531 23.8679 8.50127 23.8775 8.51982L23.8888 8.54204L23.8923 8.54887L23.8939 8.55208ZM2.57424 9.70747C2.39475 9.42955 2.24986 9.18887 2.14057 9C2.24986 8.81113 2.39475 8.57045 2.57424 8.29253C3.03526 7.57869 3.71799 6.6294 4.60436 5.68394C6.39534 3.77356 8.89933 2 11.9998 2C15.1003 2 17.6043 3.77356 19.3953 5.68394C20.2817 6.6294 20.9644 7.57869 21.4254 8.29253C21.6049 8.57045 21.7498 8.81113 21.8591 9C21.7498 9.18887 21.6049 9.42955 21.4254 9.70747C20.9644 10.4213 20.2817 11.3706 19.3953 12.3161C17.6043 14.2264 15.1003 16 11.9998 16C8.89933 16 6.39534 14.2264 4.60436 12.3161C3.71799 11.3706 3.03526 10.4213 2.57424 9.70747Z" fill="#747474"/>
<path d="M22.9998 9L23.8939 8.55208C24.0347 8.83361 24.0347 9.16639 23.8939 9.44792L22.9998 9Z" fill="#747474"/>
<path d="M0.105749 8.55208L0.999824 9L0.105397 9.44721C-0.0353668 9.16569 -0.0350147 8.83361 0.105749 8.55208Z" fill="#747474"/>
</svg>
