<svg width="22" height="14" viewBox="0 0 22 14" fill="none" xmlns="http://www.w3.org/2000/svg">
<path d="M7.70711 1.70711C8.09763 1.31658 8.09763 0.683417 7.70711 0.292893C7.31658 -0.0976311 6.68342 -0.0976311 6.29289 0.292893L0.292893 6.29289C-0.0976311 6.68342 -0.0976311 7.31658 0.292893 7.70711L6.29289 13.7071C6.68342 14.0976 7.31658 14.0976 7.70711 13.7071C8.09763 13.3166 8.09763 12.6834 7.70711 12.2929L2.41421 7L7.70711 1.70711Z" fill="#747474"/>
<path d="M15.7071 0.292893C15.3166 -0.0976311 14.6834 -0.0976311 14.2929 0.292893C13.9024 0.683417 13.9024 1.31658 14.2929 1.70711L19.5858 7L14.2929 12.2929C13.9024 12.6834 13.9024 13.3166 14.2929 13.7071C14.6834 14.0976 15.3166 14.0976 15.7071 13.7071L21.7071 7.70711C22.0976 7.31658 22.0976 6.68342 21.7071 6.29289L15.7071 0.292893Z" fill="#747474"/>
</svg>
