<svg width="23" height="23" viewBox="0 0 23 23" fill="none" xmlns="http://www.w3.org/2000/svg">
<path fill-rule="evenodd" clip-rule="evenodd" d="M19 0C18.1722 0 17.3783 0.328852 16.7929 0.914214L7.29289 10.4142C7.16473 10.5424 7.07382 10.703 7.02986 10.8788L6.02986 14.8788C5.94466 15.2196 6.04451 15.58 6.29289 15.8284C6.54127 16.0768 6.90176 16.1767 7.24254 16.0915L11.2425 15.0915C11.4184 15.0475 11.5789 14.9566 11.7071 14.8284L21.2071 5.32843C21.7925 4.74307 22.1213 3.94915 22.1213 3.12132C22.1213 2.29349 21.7925 1.49957 21.2071 0.914214C20.6217 0.328852 19.8278 0 19 0ZM18.2071 2.32843C18.4174 2.11814 18.7026 2 19 2C19.2974 2 19.5826 2.11814 19.7929 2.32843C20.0032 2.53872 20.1213 2.82393 20.1213 3.12132C20.1213 3.41871 20.0032 3.70392 19.7929 3.91421L10.4888 13.2184L8.37437 13.747L8.90296 11.6326L18.2071 2.32843Z" fill="#747474"/>
<path d="M3 2.12134C2.20435 2.12134 1.44129 2.43741 0.87868 3.00002C0.31607 3.56263 0 4.32569 0 5.12134V19.1213C0 19.917 0.31607 20.68 0.87868 21.2427C1.44129 21.8053 2.20435 22.1213 3 22.1213H17C17.7957 22.1213 18.5587 21.8053 19.1213 21.2427C19.6839 20.68 20 19.917 20 19.1213V12.1213C20 11.5691 19.5523 11.1213 19 11.1213C18.4477 11.1213 18 11.5691 18 12.1213V19.1213C18 19.3866 17.8946 19.6409 17.7071 19.8284C17.5196 20.016 17.2652 20.1213 17 20.1213H3C2.73478 20.1213 2.48043 20.016 2.29289 19.8284C2.10536 19.6409 2 19.3866 2 19.1213V5.12134C2 4.85612 2.10536 4.60177 2.29289 4.41423C2.48043 4.22669 2.73478 4.12134 3 4.12134H10C10.5523 4.12134 11 3.67362 11 3.12134C11 2.56905 10.5523 2.12134 10 2.12134H3Z" fill="#747474"/>
</svg>
